<svg width="375" height="83" viewBox="0 0 375 83" fill="none" xmlns="http://www.w3.org/2000/svg">
<g filter="url(#filter0_d_67_9)">
<path d="M47.8056 32.9498H29.3378V20.5795C29.3378 16.9824 29.1331 14.7452 28.7237 13.8679C28.3435 12.9613 27.4808 12.508 26.1355 12.508C24.6148 12.508 23.6498 13.049 23.2403 14.1311C22.8309 15.2131 22.6262 17.5527 22.6262 21.1497V54.1374C22.6262 57.5882 22.8309 59.84 23.2403 60.8928C23.6498 61.9456 24.571 62.472 26.0039 62.472C27.3784 62.472 28.2704 61.9456 28.6798 60.8928C29.1185 59.84 29.3378 57.3689 29.3378 53.4794V44.5745H47.8056V47.3381C47.8056 54.6784 47.2792 59.8839 46.2264 62.9546C45.2029 66.0252 42.9072 68.7157 39.3394 71.026C35.8008 73.3363 31.4288 74.4915 26.2233 74.4915C20.8131 74.4915 16.3533 73.5118 12.844 71.5524C9.33464 69.593 7.00972 66.8879 5.86919 63.4371C4.72866 59.957 4.15839 54.7369 4.15839 47.7767V27.0279C4.15839 21.9101 4.33386 18.0791 4.68479 15.5348C5.03572 12.9613 6.0739 10.4902 7.79932 8.12137C9.55398 5.75258 11.9666 3.89556 15.0373 2.55032C18.1372 1.17583 21.6904 0.488589 25.6969 0.488589C31.1363 0.488589 35.6253 1.54139 39.1639 3.64698C42.7025 5.75258 45.0274 8.38457 46.1387 11.543C47.25 14.6721 47.8056 19.5559 47.8056 26.1944V32.9498ZM93.9971 35.2309V49.4875C93.9971 54.7223 93.7339 58.5679 93.2075 61.0244C92.6811 63.4517 91.5552 65.7328 89.8298 67.8676C88.1044 69.9732 85.8818 71.5378 83.1621 72.5613C80.4716 73.5556 77.3717 74.0528 73.8623 74.0528C69.9436 74.0528 66.6244 73.6288 63.9046 72.7807C61.1849 71.9033 59.0647 70.602 57.544 68.8765C56.0525 67.1219 54.9851 65.0163 54.3417 62.5598C53.6984 60.074 53.3767 56.36 53.3767 51.4177V36.503C53.3767 31.0928 53.9616 26.867 55.1313 23.8256C56.3011 20.7842 58.4067 18.3423 61.4481 16.4999C64.4895 14.6575 68.379 13.7363 73.1166 13.7363C77.0938 13.7363 80.5008 14.3358 83.3375 15.5348C86.2035 16.7046 88.4114 18.2399 89.9614 20.1408C91.5113 22.0417 92.5641 24.0011 93.1198 26.0189C93.7046 28.0368 93.9971 31.1074 93.9971 35.2309ZM76.275 30.8442C76.275 27.8613 76.1142 25.9897 75.7925 25.2293C75.4708 24.4397 74.7835 24.0449 73.7307 24.0449C72.6779 24.0449 71.9761 24.4397 71.6251 25.2293C71.2742 25.9897 71.0988 27.8613 71.0988 30.8442V57.1203C71.0988 59.8693 71.2742 61.6678 71.6251 62.5159C71.9761 63.3347 72.6633 63.7442 73.6869 63.7442C74.7397 63.7442 75.4269 63.364 75.7486 62.6036C76.0995 61.8433 76.275 60.2056 76.275 57.6906V30.8442ZM140.189 1.98005V73H122.466V68.7888C120.77 70.5435 118.986 71.8595 117.115 72.7368C115.243 73.6141 113.284 74.0528 111.237 74.0528C108.488 74.0528 106.104 73.3363 104.086 71.9033C102.069 70.4411 100.767 68.7596 100.182 66.8587C99.6266 64.9578 99.3488 61.8579 99.3488 57.559V30.3178C99.3488 25.8435 99.6266 22.6704 100.182 20.7988C100.767 18.9272 102.083 17.2895 104.13 15.8857C106.177 14.4528 108.619 13.7363 111.456 13.7363C113.649 13.7363 115.653 14.1311 117.466 14.9207C119.308 15.7103 120.975 16.8947 122.466 18.4739V1.98005H140.189ZM122.466 29.4405C122.466 27.3057 122.276 25.8727 121.896 25.1416C121.545 24.4105 120.829 24.0449 119.747 24.0449C118.694 24.0449 117.977 24.3812 117.597 25.0539C117.246 25.6972 117.071 27.1595 117.071 29.4405V57.9538C117.071 60.3226 117.246 61.8871 117.597 62.6475C117.948 63.3786 118.621 63.7442 119.615 63.7442C120.756 63.7442 121.516 63.3347 121.896 62.5159C122.276 61.6678 122.466 59.6207 122.466 56.3746V29.4405ZM194.846 1.98005L205.418 73H186.512L185.59 60.2348H178.967L177.87 73H158.744L168.132 1.98005H194.846ZM185.064 47.6451C184.128 39.6029 183.192 29.6745 182.257 17.8597C180.385 31.4291 179.215 41.3576 178.747 47.6451H185.064ZM225.772 14.7891L225.07 22.4219C227.644 16.9532 231.373 14.058 236.256 13.7363V34.222C233.01 34.222 230.627 34.6606 229.106 35.538C227.585 36.4153 226.65 37.6436 226.299 39.2228C225.948 40.7727 225.772 44.3698 225.772 50.0139V73H208.05V14.7891H225.772ZM260.602 7.02471V16.1928H265.384V25.4048H260.602V56.55C260.602 60.3811 260.792 62.5159 261.173 62.9546C261.582 63.3932 263.234 63.6126 266.129 63.6126V73H258.979C254.943 73 252.063 72.8392 250.337 72.5175C248.612 72.1665 247.091 71.3916 245.775 70.1925C244.459 68.9643 243.641 67.5752 243.319 66.0252C242.997 64.446 242.836 60.7612 242.836 54.9708V25.4048H239.02V16.1928H242.836V7.02471H260.602ZM327.674 1.98005V49.4437C327.674 54.8246 327.499 58.6118 327.148 60.8051C326.797 62.9692 325.759 65.2064 324.033 67.5167C322.308 69.7977 320.027 71.5378 317.19 72.7368C314.383 73.9066 311.063 74.4915 307.232 74.4915C302.992 74.4915 299.249 73.7896 296.003 72.3859C292.756 70.9821 290.329 69.1544 288.721 66.9025C287.112 64.6507 286.162 62.2819 285.869 59.7962C285.577 57.2812 285.431 52.0172 285.431 44.0042V1.98005H303.899V55.234C303.899 58.3339 304.059 60.3226 304.381 61.1999C304.732 62.048 305.419 62.472 306.443 62.472C307.613 62.472 308.358 62.0041 308.68 61.0683C309.031 60.1032 309.206 57.8514 309.206 54.3128V1.98005H327.674ZM369.391 14.7891L362.329 42.6005L370.883 73H353.643C351.947 65.338 350.66 58.7434 349.783 53.2162C348.613 60.1179 347.341 66.7125 345.967 73H331.14L338.772 42.6005L331.14 14.7891H345.967C348.335 26.6623 349.607 33.4031 349.783 35.0116C351.479 25.0977 352.766 18.3569 353.643 14.7891H369.391Z" fill="#0075F4"/>
</g>
<defs>
<filter id="filter0_d_67_9" x="0.158447" y="0.488586" width="374.724" height="82.0029" filterUnits="userSpaceOnUse" color-interpolation-filters="sRGB">
<feFlood flood-opacity="0" result="BackgroundImageFix"/>
<feColorMatrix in="SourceAlpha" type="matrix" values="0 0 0 0 0 0 0 0 0 0 0 0 0 0 0 0 0 0 127 0" result="hardAlpha"/>
<feOffset dy="4"/>
<feGaussianBlur stdDeviation="2"/>
<feComposite in2="hardAlpha" operator="out"/>
<feColorMatrix type="matrix" values="0 0 0 0 0 0 0 0 0 0 0 0 0 0 0 0 0 0 0.25 0"/>
<feBlend mode="normal" in2="BackgroundImageFix" result="effect1_dropShadow_67_9"/>
<feBlend mode="normal" in="SourceGraphic" in2="effect1_dropShadow_67_9" result="shape"/>
</filter>
</defs>
</svg>
